<svg xmlns="http://www.w3.org/2000/svg" viewBox="0 0 207.05 56.76"><defs><style>.cls-1{fill:#e71212;}.cls-2{fill:#999;}</style></defs><title>Ресурс 1</title><g id="Слой_2" data-name="Слой 2"><g id="Layer_1" data-name="Layer 1"><path d="M52.53,29.11l-3.26-3.62,1.24-1.16a3.44,3.44,0,0,0,1.1-2.52V3.7A3.71,3.71,0,0,0,47.91,0H47.8a.15.15,0,0,0-.09,0h0s0,0-.07,0L35.9,8l-9-3.5h0s0,0-.07,0l-.06,0h-.11a.06.06,0,0,0-.05,0,.11.11,0,0,0-.07,0h0l-9,3.5L5.86.07,5.79,0h0L5.68,0h-.1A3.71,3.71,0,0,0,1.89,3.7V21.81A3.46,3.46,0,0,0,3,24.33l1.25,1.16L1,29.11a3.58,3.58,0,0,0-1,2.4V34.2a5.77,5.77,0,0,0,1.56,4.34h0l.14.13s.08,0,.09.09,0,0,0,0a3.84,3.84,0,0,0,1,.58h.06c.66.19,1.45.39,2.23.64l.66.22.64.22A10.6,10.6,0,0,1,7.82,41h0l.58.33.17.09.53.33.18.13.35.24.22.16.44.33.22.18.31.26c.06.06.13.11.18.17s.3.27.44.4.09.09.13.13c.33.33.64.66.94,1s.65.85,1,1.28a15.77,15.77,0,0,1,1.66,3.37c.22.64.42,1.34.59,2a10.72,10.72,0,0,1,.2,1.2c.06.37.11.74.18,1.1a4.48,4.48,0,0,0,.39,1,.79.79,0,0,1,0,.09l.11.16s0,0,0,0a0,0,0,0,0,0,0,.41.41,0,0,1,.07.11s.06.09.09.13a1.34,1.34,0,0,1,.11.14l.15.17c.06,0,.11.11.18.16a2,2,0,0,0,.39.29,2.36,2.36,0,0,0,.4.24h0a.83.83,0,0,0,.2.09,3.81,3.81,0,0,0,.44.15l.2.06.46.07a.36.36,0,0,1,.15,0H33.93a.44.44,0,0,0,.16,0l.48-.07a.58.58,0,0,1,.18,0,1.44,1.44,0,0,0,.44-.17c.09,0,.2-.09.31-.14l.33-.2.35-.28,0,0,0,0a.8.8,0,0,0,.13-.13l.17-.16.11-.15.05-.07.15-.21.11-.18a.16.16,0,0,0,0-.09,3.64,3.64,0,0,0,.39-1c.07-.37.13-.74.18-1.1s.11-.81.2-1.21A16.81,16.81,0,0,1,40,46c.3-.44.61-.86,1-1.28a11.13,11.13,0,0,1,.93-1l.13-.13c.15-.15.29-.27.44-.4s.13-.11.18-.17.2-.16.29-.25l.22-.19.44-.33.22-.16.35-.24.18-.13.53-.33.17-.09.59-.33.49-.24.48-.2c.33-.12.65-.25,1-.36.15-.06.29-.09.46-.15l.49-.15a.57.57,0,0,0,.22-.07.87.87,0,0,1,.19,0c.55-.17,1.08-.32,1.55-.42.13,0,3-.87,3-5.19V31.47A3.52,3.52,0,0,0,52.53,29.11Zm-.06,2.4v2.71a6.56,6.56,0,0,1-.27,1.94l-6.12-7.67,2.44-2.27,3.22,3.59A2.44,2.44,0,0,1,52.47,31.51ZM24,55.71l2.75-2,2.75,2Zm2.88-3.13H25.8a2.88,2.88,0,0,1-2.88-2.87v-.64a2.88,2.88,0,0,1,2.88-2.88h1.88a2.89,2.89,0,0,1,2.88,2.88v.64a2.88,2.88,0,0,1-2.88,2.87ZM8.77,40.39l-.46-.26L8.06,40a25.24,25.24,0,0,0-4-1.39l-.81-.22h0A3,3,0,0,1,1.79,37.2l6.05-7.59,3.93,13A16.68,16.68,0,0,0,8.77,40.39Zm4-12.07,3.81,3.12a.52.52,0,0,0,.33.11H21.2l1.94,2.05-.57.73-3,4L9.39,28.86Zm19.57,3.23h4.33a.57.57,0,0,0,.33-.11l3.8-3.12,3.35.53L34,38.28,30.37,33.6Zm2.06-9.34H45l2.84,3.17L45.08,28,36,26.49a.76.76,0,0,0-.26,0,.49.49,0,0,0-.2.13L32.35,30l-2.62,2.77-2.3-3,.25-.28Zm-8.3,7.54-2.31,3-5-5.27L18,26.68l-.09-.08a.13.13,0,0,0-.08,0s0,0,0,0a.57.57,0,0,0-.26,0L8.4,28,5.62,25.41,8,22.74l.44-.49H19.11l6.76,7.32ZM20.3,39l1.3-1.7,5.15-6.74,4.08,5.34L33.19,39l-6.44,6Zm16-30L44.4,3.5l-7.18,7.61-.71.77-9.25,4V5.69L35.78,9A.56.56,0,0,0,36.25,9Zm-19,0a.56.56,0,0,0,.47.06l8.52-3.34V15.91l-9.25-4-.71-.77L9.1,3.5ZM2.91,21.81V3.7A2.68,2.68,0,0,1,5.36,1l11,11.65.08.07.09.06,10.07,4.39h0s.05,0,.07,0h0l.09,0a.16.16,0,0,0,.09,0h0l.08,0h0l10.07-4.39.09-.06a.23.23,0,0,0,.07-.07L48.17,1A2.68,2.68,0,0,1,50.62,3.7V21.81a2.32,2.32,0,0,1-.77,1.75l-1.19,1.1-2.87-3.13L47.07,9.78V9.67A1.08,1.08,0,0,0,46.8,9a1.32,1.32,0,0,0-.26-.22,1.1,1.1,0,0,0-1.34.21L33.76,21.35h0L27.5,28.14l-.75.82-.92-1-6.09-6.61h0l0,0L8.28,9a1.07,1.07,0,0,0-.79-.34H7.27A1.38,1.38,0,0,0,6.68,9a1,1,0,0,0-.27.72v.11L7.67,21.53,4.83,24.68l-1.19-1.1A2.59,2.59,0,0,1,2.91,21.81ZM1,31.51a2.42,2.42,0,0,1,.71-1.7L5,26.22,7.4,28.49,1.3,36.14A6.46,6.46,0,0,1,1,34.2V31.51Zm13.29,14c-.3-.43-.61-.86-.94-1.26L9,30l10,9.28L16.86,52.11c0-.28-.09-.55-.14-.83a20.38,20.38,0,0,0-.61-2.14A16.42,16.42,0,0,0,14.32,45.53Zm5.27,10.2h-.11l-.33,0h0s-.09,0-.13,0l-.33-.11a.6.6,0,0,0-.14-.05,1.61,1.61,0,0,1-.31-.19,3,3,0,0,1-.28-.22.79.79,0,0,1-.13-.13l-.11-.11s-.05,0-.07-.09,0,0,0,0,0,0,0-.06l0,0s0-.05-.06-.07h0L19.94,40.1l1.39,1.3,4.08,3.79a3.9,3.9,0,0,0-3.55,3.88v.64a3.91,3.91,0,0,0,3.3,3.86l-3,2.18H19.7A.27.27,0,0,0,19.59,55.73Zm16.3-1,0,0a.48.48,0,0,0-.09.11s-.06.07-.1.09h0l-.1.1h0l-.28.21a1.16,1.16,0,0,1-.24.14,1.23,1.23,0,0,1-.23.11,3.19,3.19,0,0,1-.33.11l-.15,0-.33.05H31.27l-3-2.17a3.92,3.92,0,0,0,3.29-3.87V49A3.88,3.88,0,0,0,28,45.15l4.08-3.79,1.4-1.3L36,54.52s-.06.1-.09.13Zm3.29-9.18a16.69,16.69,0,0,0-1.78,3.59c-.23.68-.43,1.41-.6,2.14,0,.28-.11.55-.15.83L34.48,39.27l10-9.28L40.11,44.27A14.62,14.62,0,0,0,39.18,45.53Zm6-5.4c-.15.09-.32.17-.46.26a16.58,16.58,0,0,0-3,2.2l3.93-13,6,7.59a2.74,2.74,0,0,1-1.43,1.19A27.85,27.85,0,0,0,45.19,40.13Z"/><path class="cls-1" d="M71.71,30.57,79.42,8.78H72.1V5.15H84.72v2.7l-8,22.51h8.08V34H71.71Z"/><path d="M87.64,20.65h8.57V24H87.64Z"/><path d="M99.37,5.15h4.37l2.39,18.67,3-18.6h3.56l3.09,18.6,2.35-18.67h4.34l-4,28.8h-4.27L111,14.64,107.8,34h-4.38Z"/><path d="M127,31.94q-1.92-2.4-1.92-7V14.11q0-4.59,1.92-6.93t6.4-2.35q4.44,0,6.36,2.35t1.92,6.93V24.92c0,3.06-.64,5.39-1.94,7s-3.4,2.42-6.34,2.42S128.32,33.54,127,31.94Zm8.74-2.57a6.75,6.75,0,0,0,.61-3.21V12.9a6.72,6.72,0,0,0-.59-3.16,2.43,2.43,0,0,0-2.36-1.07,2.5,2.5,0,0,0-2.39,1.08,6.67,6.67,0,0,0-.6,3.15V26.16a6.89,6.89,0,0,0,.6,3.21,2.49,2.49,0,0,0,2.39,1.1A2.43,2.43,0,0,0,135.78,29.37Z"/><path d="M145.6,5.15h5.23V30.36h7V34H145.6Z"/><path d="M157.65,5.15h4.63l3.8,20.37,3.59-20.37h4.73L168.61,34h-5.16Z"/><path d="M177.35,5.15h12.09v3.7h-6.86v8.28H188V20.8h-5.41v9.56h6.94V34H177.35Z"/><path d="M194,32.14c-1.3-1.47-2-3.66-2.12-6.58l4.52-.89a9.93,9.93,0,0,0,.87,4.18,2.54,2.54,0,0,0,2.4,1.44,2.14,2.14,0,0,0,1.79-.73,3,3,0,0,0,.59-2,5.24,5.24,0,0,0-.76-2.9,12.54,12.54,0,0,0-2.4-2.61l-3.63-3.17a10.08,10.08,0,0,1-2.51-3.06,8.45,8.45,0,0,1-.83-3.91,6.84,6.84,0,0,1,2-5.24,7.6,7.6,0,0,1,5.46-1.87q3.73,0,5.35,2.11a10.47,10.47,0,0,1,1.87,5.71l-4.52.78a9.72,9.72,0,0,0-.66-3.53,2.12,2.12,0,0,0-2.15-1.19,2.2,2.2,0,0,0-1.78.76,3,3,0,0,0-.64,1.94,4.54,4.54,0,0,0,.56,2.33,8.26,8.26,0,0,0,1.79,2l3.59,3.16a14.52,14.52,0,0,1,3.17,3.73,9.16,9.16,0,0,1,1.14,4.63,7.36,7.36,0,0,1-.91,3.66,6.52,6.52,0,0,1-2.54,2.51,7.7,7.7,0,0,1-3.77.9Q195.92,34.34,194,32.14Z"/><path class="cls-2" d="M71.4,43.08h2.51a3.45,3.45,0,0,1,2.65.86,3.87,3.87,0,0,1,.78,2.67v4.26a4.47,4.47,0,0,1-.76,2.85,3.12,3.12,0,0,1-2.54.93H71.4ZM73.93,53.5a1.85,1.85,0,0,0,1.22-.33,1.46,1.46,0,0,0,.47-.89,11.92,11.92,0,0,0,.09-1.71V46.81a7.19,7.19,0,0,0-.12-1.51,1.18,1.18,0,0,0-.51-.77,2.19,2.19,0,0,0-1.2-.25H73V53.5Z"/><path class="cls-2" d="M85.06,43.08h4.48v1.2H86.67v3.83H89v1.14H86.67V53.5h2.9v1.15H85.06Z"/><path class="cls-2" d="M96.43,43.08H98l1.83,8.53,1.74-8.53H103l-2.56,11.57H99Z"/><path class="cls-2" d="M110.35,43.08h4.49v1.2H112v3.83h2.33v1.14H112V53.5h2.91v1.15h-4.52Z"/><path class="cls-2" d="M122.3,43.08h1.61V53.5h3v1.15H122.3Z"/><path class="cls-2" d="M134.54,53.82a4.58,4.58,0,0,1-.74-2.8V46.64a4.33,4.33,0,0,1,.74-2.73A2.94,2.94,0,0,1,137,43a2.89,2.89,0,0,1,2.43.94,4.32,4.32,0,0,1,.73,2.72V51a4.52,4.52,0,0,1-.74,2.77,3.53,3.53,0,0,1-4.85,0Zm3.65-.84a3.18,3.18,0,0,0,.31-1.6V46.31a3.06,3.06,0,0,0-.31-1.57,1.75,1.75,0,0,0-2.45,0,3.17,3.17,0,0,0-.31,1.57v5.07a3.3,3.3,0,0,0,.31,1.6,1.68,1.68,0,0,0,2.45,0Z"/><path class="cls-2" d="M147.85,43.08h2.87a2.69,2.69,0,0,1,2.18.81,3.68,3.68,0,0,1,.68,2.39,3.14,3.14,0,0,1-.73,2.2,2.73,2.73,0,0,1-2.12.79h-1.27v5.38h-1.61Zm2.36,5a2.94,2.94,0,0,0,1.1-.16,1,1,0,0,0,.57-.54,2.93,2.93,0,0,0,.17-1.11,4.64,4.64,0,0,0-.13-1.31.9.9,0,0,0-.51-.58,3,3,0,0,0-1.19-.17h-.76v3.87Z"/><path class="cls-2" d="M161,43.08h1.59l2,9.39,2.06-9.39h1.57l.22,11.57h-1.3l-.13-8.4-2,8.4h-.91l-1.95-8.4-.13,8.4h-1.31Z"/><path class="cls-2" d="M176.4,43.08h4.49v1.2H178v3.83h2.33v1.14H178V53.5h2.91v1.15H176.4Z"/><path class="cls-2" d="M188.35,43.08h1.1l3.28,7.69V43.08h1.35V54.65h-1l-3.33-7.9v7.9h-1.37Z"/><path class="cls-2" d="M203.29,44.28h-2v-1.2h5.48v1.2h-1.9V54.65h-1.62Z"/></g></g></svg>